<?xml version="1.0" encoding="UTF-8"?>
<!DOCTYPE svg PUBLIC "-//W3C//DTD SVG 1.1//EN" "http://www.w3.org/Graphics/SVG/1.1/DTD/svg11.dtd">
<!-- Creator: CorelDRAW 2019 (64-Bit) -->
<svg xmlns="http://www.w3.org/2000/svg" xml:space="preserve" width="2113px" height="480px" version="1.1" style="shape-rendering:geometricPrecision; text-rendering:geometricPrecision; image-rendering:optimizeQuality; fill-rule:evenodd; clip-rule:evenodd"
viewBox="0 0 2113 480.09"
 xmlns:xlink="http://www.w3.org/1999/xlink"
 xmlns:xodm="http://www.corel.com/coreldraw/odm/2003">
 <defs>
  <style type="text/css">
   <![CDATA[
    .fil0 {fill:#ffffff;fill-rule:nonzero}
   ]]>
  </style>
 </defs>
 <g id="Layer_x0020_1">
  <metadata id="CorelCorpID_0Corel-Layer"/>
  <path class="fil0" d="M356.86 426.64c57.68,-33.32 93.75,-90.33 93.75,-152.3 0,-138.15 -139.5,-187.57 -139.5,-187.57 -25.66,-14.59 -57.31,-22.41 -92.32,-22.41 -2.59,0 -7.25,0.08 -9.86,0.08 35.6,-25.83 81.86,-41.75 128.65,-41.75 109.03,0 191.54,100 191.54,193.62 0,108.88 -79.76,193.41 -172.26,210.33zm-70.14 -0.4l0 0c-70.9,-13.42 -129.14,-65.28 -154.16,-126.74 24.86,23.56 60.22,39.68 105.38,39.68 72.07,0 140.6,-53.44 140.6,-132.52 0,-38.93 -14.26,-64.36 -14.26,-64.36 30.14,29.51 49.18,70.91 49.18,121.35 0,70.91 -54.94,137.06 -126.74,162.59zm-63.39 11.24l0 0c-84.64,0 -174.04,-79.11 -174.04,-177.56 0,-48.12 15.61,-96.12 55.18,-128.4 -7.04,14.17 -11.87,31.11 -13.81,51.49 -0.94,7.36 -1.49,14.97 -1.49,22.95 0,106.33 60.36,194.5 154.85,230.19 -6.82,0.87 -13.75,1.33 -20.69,1.33zm8.17 -344.28l0 0c61.52,0 109.11,58.48 109.11,110.6 0,70.54 -44.58,117.76 -106.86,117.76 -55.85,0 -105.74,-49.95 -105.74,-121.02 0,-58.66 45.18,-107.34 103.49,-107.34zm87.7 -93.2l0 0c-57.46,0 -139.11,23.91 -187.26,82.13 -76.24,32.23 -131.94,104.03 -131.94,182.64 0,121.87 107.44,194.68 236.94,194.68 21.3,0 41.66,-4.56 60.6,-9.29 13.93,2.15 28.41,3.3 43.41,3.3 122.23,0 229.85,-95.69 229.85,-220.79 0,-128.93 -106.18,-232.67 -251.6,-232.67z"/>
  <path class="fil0" d="M772.62 357.36c0,39.21 -25.78,61.35 -80.76,63.01l0 59.72c62.39,0 141.47,-32.69 141.47,-122.73l0 -292.64 -60.71 0 0 292.64z"/>
  <path class="fil0" d="M946.87 185.15c4.04,-36.37 20.06,-68.47 60.12,-68.47 40.12,0 56.12,32.1 60.2,68.47l-120.32 0zm183.85 5.58l0 0c0,-46.41 -26.38,-131.59 -123.73,-131.59 -92.2,0 -123.65,74.71 -123.65,152.03 0,77.41 32.09,152.07 137.99,152.07 28.68,0 65.24,-6.61 107.09,-35.4l-30.91 -46.4c-26.32,16.06 -51.6,24.31 -76.18,24.31 -46.97,0 -68.73,-30.95 -73.87,-63.01l127.68 0c37.8,0 55.58,-14.34 55.58,-52.01z"/>
  <path class="fil0" d="M1295.72 59.14c-75.64,0 -114.42,60.31 -114.42,60.31l0 240.51 60.62 0 0 -221.17c0,0 18.9,-22.12 53.8,-22.12 38.39,0 59.53,30.4 59.53,57.49l0 185.8 60.78 0 0 -185.8c0,-55.85 -40.72,-115.02 -120.31,-115.02z"/>
  <polygon class="fil0" points="1483.33,359.96 1543.98,359.96 1543.98,62.47 1483.33,62.47 "/>
  <path class="fil0" d="M2003.07 179.69l0.54 0c-20.71,-5.55 -47.47,-15.37 -47.47,-35.87 0,-14.94 16,-27.14 46.34,-27.14 30.36,0 64.7,13.28 77.87,19.32l19.52 -52.55c-20.12,-9.95 -60.8,-24.31 -97.39,-24.31 -52.65,0 -107.66,25.96 -107.66,84.68 0,54.1 49.27,81.25 97.92,92.84 26.41,5.49 59.54,16.06 59.54,37.08 0,22.12 -26.81,32.08 -53.23,32.08 -25.74,0 -61.24,-16.1 -88.15,-29.94l-23.49 54.77c25.74,12.77 63.59,31.45 111.64,32.59 55.47,0 113.95,-25.39 113.95,-89.5 0,-62.05 -64.14,-83.03 -109.93,-94.05z"/>
  <path class="fil0" d="M1787.06 248.23c0,27.01 -21.1,57.27 -59.25,57.51 -37.97,-0.24 -59.16,-30.5 -59.16,-57.51l0 -185.76 -60.65 0 0 185.76c0,55.73 40.46,114.62 119.55,115.01l0.7 0c79.1,-0.39 119.48,-59.28 119.48,-115.01l0 -185.76 -60.67 0 0 185.76z"/>
 </g>
</svg>
